<?xml version="1.0" standalone="no"?>
<!DOCTYPE svg PUBLIC "-//W3C//DTD SVG 20010904//EN"
 "http://www.w3.org/TR/2001/REC-SVG-20010904/DTD/svg10.dtd">
<svg version="1.0" xmlns="http://www.w3.org/2000/svg"
 width="366.000000pt" height="366.000000pt" viewBox="0 0 366.000000 366.000000"
 preserveAspectRatio="xMidYMid meet">
<metadata>
Created by potrace 1.11, written by Peter Selinger 2001-2013
</metadata>
<g transform="translate(0.000000,366.000000) scale(0.100000,-0.100000)"
fill="#000000" stroke="none">
<path d="M1520 2715 c-168 -168 -308 -305 -311 -305 -4 0 -76 70 -160 155
l-154 154 -447 -446 -447 -447 445 -445 445 -445 158 158 158 157 311 -311
311 -312 312 311 312 311 142 -142 c78 -79 149 -149 157 -156 14 -11 76 48
457 429 243 242 441 444 441 447 0 4 -199 206 -442 449 l-443 443 -157 -157
-158 -158 -308 308 c-169 169 -309 307 -312 307 -3 0 -142 -137 -310 -305z
m525 -305 l206 -204 -186 -186 c-102 -102 -185 -188 -185 -192 0 -4 84 -91
187 -193 l187 -186 -212 -212 -212 -212 -212 212 -213 213 189 189 190 190
-187 187 c-103 103 -186 188 -185 190 30 39 407 412 415 411 7 -1 105 -94 218
-207z m-1083 -117 l67 -68 -199 -199 -199 -200 195 -194 c107 -106 194 -197
194 -201 0 -10 -118 -131 -128 -131 -4 0 -126 119 -271 264 l-265 265 265 265
c145 146 266 265 269 265 3 1 36 -29 72 -66z m2072 -200 l267 -267 -263 -263
c-145 -145 -266 -263 -270 -263 -5 0 -37 29 -73 63 l-65 64 199 200 199 200
-199 199 -199 199 67 67 c37 38 68 68 69 68 1 0 122 -120 268 -267z m-1703
-169 l95 -95 -100 -100 -100 -100 -98 99 -99 98 97 97 c53 53 100 97 103 97 3
0 49 -43 102 -96z m1205 -4 l94 -95 -99 -99 -99 -99 -100 99 -100 99 96 98
c53 53 101 96 105 94 5 -1 51 -45 103 -97z"/>
</g>
</svg>
